USFL
nRows=287
nColumns=2
inDegrees=yes
endheader
time	tib_ant_r	
3.22681	 87.491339	
3.26008	 87.501232	
3.29335	 87.487958	
3.32661	 87.467242	
3.35988	 87.472490	
3.39315	 87.458377	
3.42641	 87.477260	
3.45968	 87.462790	
3.49294	 87.489257	
3.52621	 87.481879	
3.55948	 87.462604	
3.59274	 87.487732	
3.62601	 87.476227	
3.65927	 87.523068	
3.69254	 87.505313	
3.72581	 87.492957	
3.75907	 87.477902	
3.79234	 87.447929	
3.8256	 87.437774	
3.85887	 87.448367	
3.89214	 87.420707	
3.9254	 87.432141	
3.95867	 87.428361	
3.99194	 87.420471	
4.0252	 87.427712	
4.05847	 87.443340	
4.09173	 87.463533	
4.125	 87.479365	
4.15827	 87.473006	
4.19153	 87.485824	
4.2248	 87.486960	
4.25806	 87.496272	
4.29133	 87.499405	
4.3246	 87.514229	
4.35786	 87.523853	
4.39113	 87.531191	
4.4244	 87.513129	
4.45766	 87.513552	
4.49093	 87.507424	
4.52419	 87.498207	
4.55746	 87.501838	
4.59073	 87.503763	
4.62399	 87.506062	
4.65726	 87.506733	
4.69052	 87.532214	
4.72379	 87.542646	
4.75706	 87.555879	
4.79032	 87.562536	
4.82359	 87.561889	
4.85685	 87.609828	
4.89012	 87.592825	
4.92339	 87.669745	
4.95665	 87.745175	
4.98992	 87.636218	
5.02319	 87.659920	
5.05645	 87.629323	
5.08972	 87.648954	
5.12298	 87.688595	
5.15625	 87.641698	
5.18952	 87.651569	
5.22278	 87.652237	
5.25605	 87.625043	
5.28931	 87.628898	
5.32258	 87.624429	
5.35585	 87.603452	
5.38911	 87.704831	
5.42238	 87.465051	
5.45565	 87.382893	
5.48891	 87.280097	
5.52218	 86.822942	
5.55544	 86.654069	
5.58871	 86.769972	
5.62198	 86.159713	
5.65524	 86.095256	
5.68851	 86.237613	
5.72177	 85.794738	
5.75504	 86.104905	
5.78831	 85.648634	
5.82157	 85.504560	
5.85484	 85.865711	
5.8881	 85.284394	
5.92137	 85.357142	
5.95464	 85.486239	
5.9879	 85.109346	
6.02117	 85.068223	
6.05444	 85.400958	
6.0877	 85.127626	
6.12097	 85.411156	
6.15423	 85.036807	
6.1875	 85.150186	
6.22077	 85.316090	
6.25403	 85.072764	
6.2873	 85.042463	
6.32056	 85.136635	
6.35383	 84.975392	
6.3871	 84.897314	
6.42036	 84.998942	
6.45363	 84.803183	
6.4869	 84.762909	
6.52016	 84.608997	
6.55343	 84.647499	
6.58669	 84.683572	
6.61996	 84.588090	
6.65323	 84.666601	
6.68649	 84.816320	
6.71976	 84.454803	
6.75302	 84.245860	
6.78629	 83.829987	
6.81956	 78.523725	
6.85282	 78.165787	
6.88609	 78.590925	
6.91935	 78.622440	
6.95262	 78.547561	
6.98589	 78.897825	
7.01915	 78.816515	
7.05242	 78.644796	
7.08569	 78.804854	
7.11895	 79.110992	
7.15222	 79.018695	
7.18548	 79.172212	
7.21875	 79.154509	
7.25202	 79.266677	
7.28528	 79.116268	
7.31855	 78.966448	
7.35181	 79.046377	
7.38508	 79.049597	
7.41835	 79.031309	
7.45161	 79.139684	
7.48488	 79.232580	
7.51815	 79.307685	
7.55141	 79.273367	
7.58468	 79.272614	
7.61794	 79.273822	
7.65121	 79.284856	
7.68448	 79.312221	
7.71774	 79.311630	
7.75101	 79.262191	
7.78427	 79.209121	
7.81754	 79.122119	
7.85081	 79.009785	
7.88407	 79.013237	
7.91734	 79.083052	
7.9506	 79.113624	
7.98387	 79.083817	
8.01714	 79.219522	
8.0504	 79.258960	
8.08367	 79.328947	
8.11694	 79.384955	
8.1502	 79.364305	
8.18347	 79.383164	
8.21673	 79.361390	
8.25	 79.359396	
8.28327	 79.377605	
8.31653	 79.411125	
8.3498	 79.372602	
8.38306	 79.425586	
8.41633	 79.449253	
8.4496	 79.448151	
8.48286	 79.459229	
8.51613	 79.471313	
8.5494	 79.463372	
8.58266	 79.513418	
8.61593	 79.559420	
8.64919	 79.512729	
8.68246	 79.509382	
8.71573	 79.488418	
8.74899	 79.484865	
8.78226	 79.484390	
8.81552	 79.496419	
8.84879	 79.440395	
8.88206	 79.416528	
8.91532	 79.407115	
8.94859	 79.389166	
8.98185	 79.376285	
9.01512	 79.388508	
9.04839	 79.391735	
9.08165	 79.398076	
9.11492	 79.279389	
9.14819	 79.248836	
9.18145	 79.284013	
9.21472	 79.328151	
9.24798	 79.313810	
9.28125	 79.307666	
9.31452	 79.319355	
9.34778	 79.318062	
9.38105	 79.350386	
9.41431	 79.341992	
9.44758	 79.334086	
9.48085	 79.368189	
9.51411	 79.375235	
9.54738	 79.404877	
9.58065	 79.526576	
9.61391	 79.596631	
9.64718	 79.522194	
9.68044	 79.516381	
9.71371	 79.511055	
9.74698	 79.554285	
9.78024	 79.652603	
9.81351	 79.657783	
9.84677	 79.784204	
9.88004	 79.806435	
9.91331	 79.695164	
9.94657	 79.673787	
9.97984	 79.656271	
10.0131	 79.703279	
10.0464	 79.768718	
10.0796	 79.702736	
10.1129	 79.626940	
10.1462	 79.608609	
10.1794	 79.670186	
10.2127	 79.645324	
10.246	 79.625450	
10.2792	 79.648656	
10.3125	 79.651745	
10.3458	 79.634069	
10.379	 79.636283	
10.4123	 79.523730	
10.4456	 79.589929	
10.4788	 79.640761	
10.5121	 79.558604	
10.5454	 79.543015	
10.5786	 79.305594	
10.6119	 79.114509	
10.6452	 79.130566	
10.6784	 78.919879	
10.7117	 78.724330	
10.745	 78.978512	
10.7782	 78.864126	
10.8115	 79.310645	
10.8448	 79.339642	
10.878	 79.108996	
10.9113	 79.456687	
10.9446	 79.287688	
10.9778	 78.900133	
11.0111	 79.235501	
11.0444	 79.140565	
11.0776	 78.686138	
11.1109	 78.854252	
11.1442	 79.090627	
11.1774	 79.615783	
11.2107	 80.100601	
11.244	 79.887707	
11.2772	 80.468250	
11.3105	 80.518921	
11.3437	 80.393314	
11.377	 80.673905	
11.4103	 81.000421	
11.4435	 81.293245	
11.4768	 81.523946	
11.5101	 81.849639	
11.5433	 81.936903	
11.5766	 81.875607	
11.6099	 81.977313	
11.6431	 82.033214	
11.6764	 81.993688	
11.7097	 81.966230	
11.7429	 82.024673	
11.7762	 82.126746	
11.8095	 82.114348	
11.8427	 82.299756	
11.876	 82.299768	
11.9093	 82.329862	
11.9425	 82.296189	
11.9758	 82.305569	
12.0091	 82.353970	
12.0423	 82.341655	
12.0756	 82.346741	
12.1089	 82.334845	
12.1421	 82.318833	
12.1754	 82.340365	
12.2087	 82.372070	
12.2419	 82.286665	
12.2752	 82.422784	
12.3085	 82.426301	
12.3417	 82.383469	
12.375	 82.444200	
12.4083	 82.660644	
12.4415	 82.727798	
12.4748	 82.813122	
12.5081	 82.896244	
12.5413	 82.987176	
12.5746	 82.819586	
12.6079	 82.768398	
12.6411	 82.751114	
12.6744	 82.777106	
12.7077	 82.798369	
12.7409	 82.805455	
